<svg width="37" height="23" viewBox="0 0 37 23" fill="none" xmlns="http://www.w3.org/2000/svg">
<path fill-rule="evenodd" clip-rule="evenodd" d="M0.347153 13.1399C0.347153 18.1669 8.55188 22.2405 18.6701 22.2405C28.7884 22.2405 36.9931 18.1669 36.9931 13.1399V9.16229H0.347153V13.1399Z" fill="url(#paint0_linear_11_39)"/>
<path style="mix-blend-mode:screen" opacity="0.5" fill-rule="evenodd" clip-rule="evenodd" d="M16.2886 18.1943C17.0732 18.2423 17.8648 18.2698 18.677 18.2698C20.3427 18.2698 21.9534 18.16 23.4883 17.9543V21.9251C21.9534 22.1308 21.272 22.2406 18.677 22.2406C16.0821 22.2406 11.8627 21.7468 9.075 20.8895V16.9187C11.2225 17.5771 13.6729 18.0229 16.2886 18.1943Z" fill="url(#paint1_linear_11_39)"/>
<path style="mix-blend-mode:multiply" opacity="0.5" fill-rule="evenodd" clip-rule="evenodd" d="M31.1631 15.8215C34.7217 14.1687 36.9587 11.8232 37 9.21033V13.1331C37 15.7597 34.7561 18.1326 31.1631 19.7922V15.8146V15.8215Z" fill="url(#paint2_linear_11_39)"/>
<path style="mix-blend-mode:multiply" opacity="0.5" fill-rule="evenodd" clip-rule="evenodd" d="M4.11224 14.683V18.6607C1.75132 17.1313 0.347153 15.2111 0.347153 13.1331V9.15546C0.360919 11.2334 1.7582 13.1468 4.11224 14.6762V14.683Z" fill="url(#paint3_linear_11_39)"/>
<path style="mix-blend-mode:screen" fill-rule="evenodd" clip-rule="evenodd" d="M16.2886 18.1943C17.0732 18.2423 17.8648 18.2697 18.677 18.2697V22.2405C15.9031 22.2405 13.2737 21.9319 10.9197 21.3901V17.4193C12.5854 17.8102 14.3888 18.0777 16.2886 18.2012V18.1943Z" fill="url(#paint4_linear_11_39)"/>
<path opacity="0.65" fill-rule="evenodd" clip-rule="evenodd" d="M21.3064 20.2723C21.3064 20.7729 21.2651 21.2393 21.1962 21.637C21.1894 21.6782 21.1481 21.7125 21.1068 21.7125C21.0655 21.7125 21.0242 21.6782 21.0173 21.637C20.9485 21.2393 20.9072 20.7729 20.9072 20.2723C20.9072 19.7716 20.9485 19.3053 21.0173 18.9075C21.0242 18.8664 21.0655 18.8321 21.1068 18.8321C21.1481 18.8321 21.1894 18.8664 21.1962 18.9075C21.2651 19.3053 21.3064 19.7716 21.3064 20.2723ZM23.7155 20.0322C23.7155 20.5329 23.6811 20.9992 23.6122 21.397C23.6054 21.4381 23.5709 21.4724 23.5228 21.4724C23.4746 21.4724 23.4402 21.4381 23.4333 21.397C23.3713 20.9992 23.33 20.5329 23.33 20.0322C23.33 19.5316 23.3644 19.0653 23.4333 18.6675C23.4402 18.6264 23.4746 18.5921 23.5228 18.5921C23.5709 18.5921 23.6054 18.6264 23.6122 18.6675C23.6742 19.0653 23.7155 19.5316 23.7155 20.0322ZM26.1039 19.6139C26.1039 20.1145 26.0695 20.5809 26.0076 20.9787C26.0007 21.0198 25.9663 21.0541 25.925 21.0541C25.8837 21.0541 25.8493 21.0198 25.8424 20.9787C25.7804 20.5809 25.746 20.1145 25.746 19.6139C25.746 19.1133 25.7804 18.6469 25.8424 18.2492C25.8424 18.208 25.8837 18.1737 25.925 18.1737C25.9663 18.1737 26.0007 18.208 26.0076 18.2492C26.0695 18.6469 26.1039 19.1133 26.1039 19.6139ZM28.4511 19.0035C28.4511 19.5042 28.4167 19.9705 28.3547 20.3683C28.3547 20.4094 28.3134 20.4437 28.279 20.4437C28.2446 20.4437 28.2033 20.4094 28.2033 20.3683C28.1414 19.9705 28.1069 19.5042 28.1069 19.0035C28.1069 18.5029 28.1414 18.0366 28.2033 17.6388C28.2033 17.5977 28.2446 17.5634 28.279 17.5634C28.3134 17.5634 28.3547 17.5977 28.3547 17.6388C28.4167 18.0366 28.4511 18.5029 28.4511 19.0035ZM30.7294 18.1737C30.7294 18.6744 30.695 19.1407 30.6399 19.5385C30.6399 19.5796 30.6055 19.6139 30.5642 19.6139C30.5229 19.6139 30.4954 19.5796 30.4885 19.5385C30.4334 19.1407 30.399 18.6744 30.399 18.1737C30.399 17.6731 30.4334 17.2067 30.4885 16.809C30.4885 16.7678 30.5229 16.7335 30.5642 16.7335C30.6055 16.7335 30.6331 16.7678 30.6399 16.809C30.695 17.2067 30.7294 17.6731 30.7294 18.1737ZM32.8907 17.0833C32.8907 17.5839 32.8632 18.0503 32.8081 18.448C32.8081 18.4892 32.7737 18.5235 32.7393 18.5235C32.7049 18.5235 32.6774 18.4892 32.6705 18.448C32.6154 18.0503 32.5879 17.5839 32.5879 17.0833C32.5879 16.5827 32.6154 16.1163 32.6705 15.7186C32.6705 15.6774 32.7049 15.6431 32.7393 15.6431C32.7737 15.6431 32.8081 15.6774 32.8081 15.7186C32.8632 16.1163 32.8907 16.5827 32.8907 17.0833ZM34.8456 15.6568C34.8456 16.1575 34.818 16.6238 34.763 17.0216C34.763 17.0627 34.7285 17.097 34.6941 17.097C34.6597 17.097 34.6322 17.0627 34.6253 17.0216C34.5771 16.6238 34.5427 16.1575 34.5427 15.6568C34.5427 15.1562 34.5702 14.6899 34.6253 14.2921C34.6253 14.2509 34.6597 14.2167 34.6941 14.2167C34.7285 14.2167 34.7561 14.2509 34.763 14.2921C34.8111 14.6899 34.8456 15.1562 34.8456 15.6568ZM16.0408 20.2723C16.0408 20.7729 16.0821 21.2393 16.1509 21.637C16.1578 21.6782 16.1991 21.7125 16.2404 21.7125C16.2817 21.7125 16.323 21.6782 16.3299 21.637C16.3987 21.2393 16.44 20.7729 16.44 20.2723C16.44 19.7716 16.3987 19.3053 16.3299 18.9075C16.323 18.8664 16.2817 18.8321 16.2404 18.8321C16.1991 18.8321 16.1578 18.8664 16.1509 18.9075C16.0821 19.3053 16.0408 19.7716 16.0408 20.2723ZM13.6316 20.0322C13.6316 20.5329 13.6661 20.9992 13.7349 21.397C13.7418 21.4381 13.7762 21.4724 13.8244 21.4724C13.8726 21.4724 13.907 21.4381 13.9139 21.397C13.9758 20.9992 14.0171 20.5329 14.0171 20.0322C14.0171 19.5316 13.9827 19.0653 13.9139 18.6675C13.907 18.6264 13.8726 18.5921 13.8244 18.5921C13.7762 18.5921 13.7418 18.6264 13.7349 18.6675C13.6729 19.0653 13.6316 19.5316 13.6316 20.0322ZM11.2432 19.6139C11.2432 20.1145 11.2776 20.5809 11.3396 20.9787C11.3396 21.0198 11.3809 21.0541 11.4222 21.0541C11.4635 21.0541 11.4979 21.0198 11.5048 20.9787C11.5667 20.5809 11.6011 20.1145 11.6011 19.6139C11.6011 19.1133 11.5667 18.6469 11.5048 18.2492C11.4979 18.208 11.4635 18.1737 11.4222 18.1737C11.3809 18.1737 11.3464 18.208 11.3396 18.2492C11.2776 18.6469 11.2432 19.1133 11.2432 19.6139ZM8.89603 19.0035C8.89603 19.5042 8.93045 19.9705 8.9924 20.3683C8.9924 20.4094 9.0337 20.4437 9.06811 20.4437C9.10253 20.4437 9.14383 20.4094 9.14383 20.3683C9.20578 19.9705 9.24019 19.5042 9.24019 19.0035C9.24019 18.5029 9.20578 18.0366 9.14383 17.6388C9.14383 17.5977 9.10253 17.5634 9.06811 17.5634C9.0337 17.5634 8.9924 17.5977 8.9924 17.6388C8.93045 18.0366 8.89603 18.5029 8.89603 19.0035ZM6.61771 18.1737C6.61771 18.6744 6.65212 19.1407 6.70719 19.5385C6.70719 19.5796 6.74161 19.6139 6.7829 19.6139C6.8242 19.6139 6.85174 19.5796 6.85862 19.5385C6.91368 19.1407 6.9481 18.6744 6.9481 18.1737C6.9481 17.6731 6.91368 17.2067 6.85862 16.809C6.85862 16.7678 6.8242 16.7335 6.7829 16.7335C6.74161 16.7335 6.71407 16.7678 6.70719 16.809C6.65212 17.2067 6.61771 17.6731 6.61771 18.1737ZM4.4564 17.0833C4.4564 17.5839 4.48393 18.0503 4.53899 18.448C4.53899 18.4892 4.57341 18.5235 4.60783 18.5235C4.64224 18.5235 4.67666 18.4892 4.67666 18.448C4.73172 18.0503 4.75925 17.5839 4.75925 17.0833C4.75925 16.5827 4.73172 16.1163 4.67666 15.7186C4.67666 15.6774 4.64224 15.6431 4.60783 15.6431C4.57341 15.6431 4.53899 15.6774 4.53899 15.7186C4.48393 16.1163 4.4564 16.5827 4.4564 17.0833ZM2.50158 15.6568C2.50158 16.1575 2.52911 16.6238 2.58417 17.0216C2.58417 17.0627 2.61859 17.097 2.65301 17.097C2.68742 17.097 2.71496 17.0627 2.72184 17.0216C2.77002 16.6238 2.80444 16.1575 2.80444 15.6568C2.80444 15.1562 2.7769 14.6899 2.72184 14.2921C2.72184 14.2509 2.68742 14.2167 2.65301 14.2167C2.61859 14.2167 2.59106 14.2509 2.58417 14.2921C2.53599 14.6899 2.50158 15.1562 2.50158 15.6568ZM18.4705 20.3546C18.4705 20.8552 18.5118 21.3216 18.5806 21.7193C18.5875 21.7605 18.6288 21.7948 18.677 21.7948C18.7252 21.7948 18.7665 21.7605 18.7734 21.7193C18.8422 21.3216 18.8835 20.8552 18.8835 20.3546C18.8835 19.8539 18.8422 19.3876 18.7734 18.9898C18.7665 18.9487 18.7252 18.9144 18.677 18.9144C18.6288 18.9144 18.5875 18.9487 18.5806 18.9898C18.5118 19.3876 18.4705 19.8539 18.4705 20.3546ZM0.952866 13.8052C0.952866 14.3058 0.980398 14.7722 1.02858 15.1699C1.02858 15.2111 1.063 15.2454 1.09053 15.2454C1.11806 15.2454 1.14559 15.2111 1.15248 15.1699C1.20066 14.7722 1.22819 14.3058 1.22819 13.8052C1.22819 13.3045 1.20066 12.8382 1.15248 12.4404C1.15248 12.3993 1.11806 12.365 1.09053 12.365C1.063 12.365 1.03546 12.3993 1.02858 12.4404C0.980398 12.8382 0.952866 13.3045 0.952866 13.8052ZM36.3943 13.8052C36.3943 14.3058 36.3667 14.7722 36.3186 15.1699C36.3186 15.2111 36.2841 15.2454 36.2566 15.2454C36.2291 15.2454 36.2015 15.2111 36.1947 15.1699C36.1465 14.7722 36.1189 14.3058 36.1189 13.8052C36.1189 13.3045 36.1465 12.8382 36.1947 12.4404C36.1947 12.3993 36.2291 12.365 36.2566 12.365C36.2841 12.365 36.3117 12.3993 36.3186 12.4404C36.3667 12.8382 36.3943 13.3045 36.3943 13.8052Z" fill="#663D1F"/>
<path fill-rule="evenodd" clip-rule="evenodd" d="M0.498581 9.3612C0.498581 14.4636 8.57253 18.5989 18.5256 18.5989C28.4786 18.5989 36.5526 14.4636 36.5526 9.3612C36.5526 4.25883 28.4924 0.13031 18.5325 0.13031C8.57253 0.13031 0.498581 4.26569 0.498581 9.3612Z" fill="#FFEE76"/>
<path fill-rule="evenodd" clip-rule="evenodd" d="M0.347153 9.13487C0.347153 14.1824 8.55188 18.2697 18.6701 18.2697C28.7884 18.2697 36.9931 14.1824 36.9931 9.13487C36.9931 4.08738 28.7953 0 18.677 0C8.55877 0 0.347153 4.08738 0.347153 9.13487Z" fill="url(#paint5_linear_11_39)"/>
<path fill-rule="evenodd" clip-rule="evenodd" d="M2.0817 8.70281C1.96469 13.2085 9.29526 17.049 18.4636 17.289C27.6251 17.5291 35.1553 14.0726 35.2723 9.56692C35.3893 5.0612 28.0588 1.22072 18.8904 0.980685C9.72202 0.740654 2.19872 4.19709 2.0817 8.70281Z" fill="#FFEE76"/>
<path fill-rule="evenodd" clip-rule="evenodd" d="M2.19873 9.13488C2.19873 13.6749 9.57748 17.3508 18.677 17.3508C27.7766 17.3508 35.1553 13.6749 35.1553 9.13488C35.1553 4.59487 27.7766 0.918976 18.677 0.918976C9.57748 0.918976 2.19873 4.59487 2.19873 9.13488Z" fill="url(#paint6_linear_11_39)"/>
<path fill-rule="evenodd" clip-rule="evenodd" d="M35.1209 9.64237C34.5978 5.34239 27.4324 1.93396 18.6701 1.93396C9.90787 1.93396 2.74938 5.34239 2.22626 9.64237C2.20561 9.47778 2.19873 9.30633 2.19873 9.13488C2.19873 4.59487 9.5706 0.918976 18.677 0.918976C27.7834 0.918976 35.1553 4.59487 35.1553 9.13488C35.1553 9.30633 35.1415 9.47092 35.1278 9.64237H35.1209Z" fill="url(#paint7_linear_11_39)"/>
<path style="mix-blend-mode:screen" fill-rule="evenodd" clip-rule="evenodd" d="M18.677 1.93396C10.2451 1.93396 3.29315 5.08865 2.31574 9.16231C2.27444 9.32004 2.24691 9.48463 2.22626 9.64237C2.25379 9.88926 2.30886 10.1361 2.38457 10.3762C2.57042 10.9934 2.89392 11.5832 3.34133 12.1455L3.48588 12.125L23.9289 9.16231L34.3775 7.64669C32.2506 4.33426 26.0282 1.93396 18.677 1.93396Z" fill="url(#paint8_linear_11_39)"/>
<path style="mix-blend-mode:screen" fill-rule="evenodd" clip-rule="evenodd" d="M2.08171 8.70282C2.18496 4.69088 8.15954 1.51562 15.9375 1.03556C16.8254 0.960122 17.7409 0.925832 18.677 0.925832C26.9299 0.925832 33.7649 3.95022 34.9695 7.90043C35.0108 8.01016 35.0521 8.11989 35.0865 8.22962L36.8554 7.97587C35.6991 3.47701 28.0037 0 18.677 0C8.55188 0 0.347153 4.08738 0.347153 9.13487C0.347153 9.14173 0.347153 9.14859 0.347153 9.16231C0.354036 10.5408 0.973521 11.8438 2.07483 13.0097L3.87133 12.749C3.6786 12.5502 3.49964 12.3513 3.33445 12.1455C2.89392 11.5832 2.57041 10.9934 2.37769 10.3762C2.21937 9.97841 2.12301 9.57379 2.08859 9.16231C2.07483 9.01143 2.06794 8.86055 2.07483 8.70282H2.08171Z" fill="url(#paint9_linear_11_39)"/>
<defs>
<linearGradient id="paint0_linear_11_39" x1="0.347153" y1="15.698" x2="37" y2="15.698" gradientUnits="userSpaceOnUse">
<stop stop-color="#B38746"/>
<stop offset="0.39" stop-color="#D9973B"/>
<stop offset="0.75" stop-color="#AD6C10"/>
<stop offset="0.86" stop-color="#D3953D"/>
<stop offset="1" stop-color="#B07F35"/>
</linearGradient>
<linearGradient id="paint1_linear_11_39" x1="9.06811" y1="19.5796" x2="23.4815" y2="19.5796" gradientUnits="userSpaceOnUse">
<stop stop-color="#FFEE76"/>
<stop offset="1" stop-color="#1D1D1B"/>
</linearGradient>
<linearGradient id="paint2_linear_11_39" x1="31.1631" y1="14.5047" x2="37" y2="14.5047" gradientUnits="userSpaceOnUse">
<stop stop-color="white"/>
<stop offset="1" stop-color="#663D1F"/>
</linearGradient>
<linearGradient id="paint3_linear_11_39" x1="0.347153" y1="13.9081" x2="4.11224" y2="13.9081" gradientUnits="userSpaceOnUse">
<stop stop-color="#663D1F"/>
<stop offset="1" stop-color="white"/>
</linearGradient>
<linearGradient id="paint4_linear_11_39" x1="10.9197" y1="19.8265" x2="18.677" y2="19.8265" gradientUnits="userSpaceOnUse">
<stop stop-color="#FFEE76"/>
<stop offset="1" stop-color="#1D1D1B"/>
</linearGradient>
<linearGradient id="paint5_linear_11_39" x1="0.347153" y1="9.13487" x2="37" y2="9.13487" gradientUnits="userSpaceOnUse">
<stop stop-color="#FFE878"/>
<stop offset="1" stop-color="#E6A729"/>
</linearGradient>
<linearGradient id="paint6_linear_11_39" x1="2.19873" y1="9.13488" x2="35.1553" y2="9.13488" gradientUnits="userSpaceOnUse">
<stop stop-color="#F0CC62"/>
<stop offset="1" stop-color="#ED9E1F"/>
</linearGradient>
<linearGradient id="paint7_linear_11_39" x1="2.19873" y1="5.28067" x2="35.1553" y2="5.28067" gradientUnits="userSpaceOnUse">
<stop stop-color="#B38746"/>
<stop offset="0.39" stop-color="#D9973B"/>
<stop offset="0.75" stop-color="#AD6C10"/>
<stop offset="0.86" stop-color="#D3953D"/>
<stop offset="1" stop-color="#B07F35"/>
</linearGradient>
<linearGradient id="paint8_linear_11_39" x1="2.22626" y1="7.03632" x2="34.3706" y2="7.03632" gradientUnits="userSpaceOnUse">
<stop stop-color="#FFEE76"/>
<stop offset="1" stop-color="#1D1D1B"/>
</linearGradient>
<linearGradient id="paint9_linear_11_39" x1="0.347153" y1="6.5014" x2="36.8486" y2="6.5014" gradientUnits="userSpaceOnUse">
<stop stop-color="#FFEE76"/>
<stop offset="1" stop-color="#1D1D1B"/>
</linearGradient>
</defs>
</svg>
